# xmcd
# 
# Track frame offsets:
#     187
#     28452
#     61447
#     93335
#     123512
#     149370
#     173135
# 
# Disc length: 2632
# 
# Revision: 0
# Processed by: cddbd v1.5.2PL0 Copyright (c) Steve Scherf et al.
# Submitted via: BonkEnc v1.0.8
# 
DISCID=640a4607
DTITLE=Wallace Roney - The Standard Bearer
DYEAR=1989
DGENRE=Contemporary Jazz
TTITLE0=The Way You Look Tonight
TTITLE1=I Didn't Know What Time It Was
TTITLE2=Don't Blame Me
TTITLE3=Con Alma
TTITLE4=Giant Steps
TTITLE5=When Your Lover Has Gone
TTITLE6=Loose
EXTD=YEAR: 1989
EXTT0=
EXTT1=
EXTT2=
EXTT3=
EXTT4=
EXTT5=
EXTT6=
PLAYORDER=
